<svg xmlns="http://www.w3.org/2000/svg" width="260" height="220" viewBox="0 0 260 220" role="img" aria-labelledby="title desc">
  <title id="title">小火龍</title>
  <desc id="desc">A clean stylized fire lizard mascot.</desc>
  <defs>
    <filter id="shadow" x="-20%" y="-20%" width="140%" height="140%">
      <feDropShadow dx="0" dy="8" stdDeviation="6" flood-color="#0f172a" flood-opacity="0.16"/>
    </filter>
    <linearGradient id="flameOuter" x1="0" y1="1" x2="0" y2="0">
      <stop offset="0" stop-color="#ff6a00"/>
      <stop offset="0.55" stop-color="#ffb000"/>
      <stop offset="1" stop-color="#ffe45c"/>
    </linearGradient>
    <linearGradient id="flameInner" x1="0" y1="1" x2="0" y2="0">
      <stop offset="0" stop-color="#fff1a8"/>
      <stop offset="1" stop-color="#ffffff"/>
    </linearGradient>
  </defs>

  <g filter="url(#shadow)" stroke="#2f2418" stroke-width="5" stroke-linecap="round" stroke-linejoin="round">
    <path d="M161 133 C190 116 199 87 185 59" fill="none"/>
    <path d="M179 45 C170 31 184 18 190 7 C196 20 214 24 211 43 C209 58 195 66 184 60 C178 56 175 51 179 45Z" fill="url(#flameOuter)"/>
    <path d="M188 46 C184 38 191 31 193 25 C198 34 204 38 202 47 C200 56 190 57 188 46Z" fill="url(#flameInner)" stroke-width="3"/>

    <ellipse cx="111" cy="127" rx="38" ry="49" fill="#f28c28"/>
    <ellipse cx="111" cy="137" rx="23" ry="33" fill="#ffe0a3" stroke-width="3"/>

    <circle cx="105" cy="72" r="48" fill="#f28c28"/>
    <path d="M65 72 C54 64 51 50 60 43 C70 35 80 45 82 58" fill="#f28c28"/>
    <path d="M142 72 C154 64 156 50 147 43 C137 35 128 45 127 58" fill="#f28c28"/>

    <circle cx="88" cy="65" r="7" fill="#ffffff" stroke-width="3"/>
    <circle cx="124" cy="65" r="7" fill="#ffffff" stroke-width="3"/>
    <circle cx="90" cy="67" r="3" fill="#2563eb" stroke="none"/>
    <circle cx="126" cy="67" r="3" fill="#2563eb" stroke="none"/>

    <path d="M100 82 C105 87 112 87 118 82" fill="none" stroke-width="4"/>
    <path d="M94 94 C104 101 116 101 126 94" fill="none" stroke-width="4"/>

    <path d="M75 124 C57 128 48 141 45 155" fill="none"/>
    <path d="M148 124 C166 128 174 141 177 155" fill="none"/>

    <path d="M88 171 C76 182 62 190 45 188 C51 177 65 169 83 164" fill="#f28c28"/>
    <path d="M133 171 C145 182 160 190 177 188 C171 177 156 169 138 164" fill="#f28c28"/>

    <path d="M91 109 L86 118" fill="none" stroke-width="3"/>
    <path d="M122 109 L127 118" fill="none" stroke-width="3"/>
  </g>
</svg>
